HIERARCHY
ROOT Hips
{
	OFFSET 0.000000 0.000000 0.000000
	CHANNELS 6 Xposition Yposition Zposition Zrotation Yrotation Xrotation 
	JOINT LeftUpLeg_virtual
	{
		OFFSET 0.000000 0.000000 0.000000
		CHANNELS 3 Zrotation Yrotation Xrotation
		JOINT LeftUpLeg
		{
			OFFSET 8.479694 -4.795517 -0.379053
			CHANNELS 3 Zrotation Yrotation Xrotation
			JOINT LeftLeg
			{
				OFFSET 0.485052 -32.551468 0.112863
				CHANNELS 3 Zrotation Yrotation Xrotation
				JOINT LeftFoot
				{
					OFFSET 0.438033 -32.635670 -3.012641
					CHANNELS 3 Zrotation Yrotation Xrotation
					JOINT LeftToeBase
					{
						OFFSET 0.970169 -13.225353 11.864223
						CHANNELS 3 Zrotation Yrotation Xrotation
						End Site
						{
							OFFSET 0.000000 0.000000 0.000000
						}
					}
				}
			}
		}
	}
	JOINT RightUpLeg_virtual
	{
		OFFSET 0.000000 0.000000 0.000000
		CHANNELS 3 Zrotation Yrotation Xrotation
		JOINT RightUpLeg
		{
			OFFSET -8.479694 -4.795517 -0.379053
			CHANNELS 3 Zrotation Yrotation Xrotation
			JOINT RightLeg
			{
				OFFSET -0.484100 -32.551483 0.112903
				CHANNELS 3 Zrotation Yrotation Xrotation
				JOINT RightFoot
				{
					OFFSET -0.438985 -32.635651 -3.012681
					CHANNELS 3 Zrotation Yrotation Xrotation
					JOINT RightToeBase
					{
						OFFSET -0.970169 -13.225354 11.864223
						CHANNELS 3 Zrotation Yrotation Xrotation
						End Site
						{
							OFFSET 0.000000 0.000000 0.000000
						}
					}
				}
			}
		}
	}
	JOINT Spine_virtual
	{
		OFFSET 0.000000 0.000000 0.000000
		CHANNELS 3 Zrotation Yrotation Xrotation
		JOINT Spine
		{
			OFFSET 0.000000 7.722015 1.166203
			CHANNELS 3 Zrotation Yrotation Xrotation
			JOINT Spine1
			{
				OFFSET 0.000000 12.024086 0.248766
				CHANNELS 3 Zrotation Yrotation Xrotation
				JOINT Spine2
				{
					OFFSET -0.000000 11.503036 -0.491240
					CHANNELS 3 Zrotation Yrotation Xrotation
					JOINT Neck_virtual
					{
						OFFSET 0.000000 0.000000 0.000000
						CHANNELS 3 Zrotation Yrotation Xrotation
						JOINT Neck
						{
							OFFSET 0.000000 18.430687 -3.123054
							CHANNELS 3 Zrotation Yrotation Xrotation
							JOINT Head
							{
								OFFSET -0.000000 9.051071 1.034021
								CHANNELS 3 Zrotation Yrotation Xrotation
								End Site
								{
									OFFSET 0.000000 0.000000 0.000000
								}
							}
						}
					}
					JOINT LeftShoulder_virtual
					{
						OFFSET 0.000000 0.000000 0.000000
						CHANNELS 3 Zrotation Yrotation Xrotation
						JOINT LeftShoulder
						{
							OFFSET 6.197824 13.665230 -4.064723
							CHANNELS 3 Zrotation Yrotation Xrotation
							JOINT LeftArm
							{
								OFFSET 7.778132 -0.187073 -1.709282
								CHANNELS 3 Zrotation Yrotation Xrotation
								JOINT LeftForeArm
								{
									OFFSET 21.954697 0.000000 -2.041093
									CHANNELS 3 Zrotation Yrotation Xrotation
									JOINT LeftHand
									{
										OFFSET 22.992908 0.000000 -0.870901
										CHANNELS 3 Zrotation Yrotation Xrotation
										End Site
										{
											OFFSET 0.000000 0.000000 0.000000
										}
									}
								}
							}
						}
					}
					JOINT RightShoulder_virtual
					{
						OFFSET 0.000000 0.000000 0.000000
						CHANNELS 3 Zrotation Yrotation Xrotation
						JOINT RightShoulder
						{
							OFFSET -6.197824 13.665230 -4.064723
							CHANNELS 3 Zrotation Yrotation Xrotation
							JOINT RightArm
							{
								OFFSET -7.778132 -0.187073 -1.709282
								CHANNELS 3 Zrotation Yrotation Xrotation
								JOINT RightForeArm
								{
									OFFSET -21.954697 0.000000 -2.041093
									CHANNELS 3 Zrotation Yrotation Xrotation
									JOINT RightHand
									{
										OFFSET -22.992908 0.000000 -0.870901
										CHANNELS 3 Zrotation Yrotation Xrotation
										End Site
										{
											OFFSET 0.000000 0.000000 0.000000
										}
									}
								}
							}
						}
					}
				}
			}
		}
	}
}
MOTION
Frames: 8
Frame Time: 0.033333
-3.408833 80.694725 32.893566 -179.809757 6.023257 179.941757 -4.946308 0.068017 9.652767 -4.604387 1.940473 -21.185628 8.604869 5.779830 28.641731 -0.794767 -4.797757 -12.617495 0.000000 0.000000 0.000000 -0.418382 -1.902646 9.242237 -4.318949 -3.323004 -39.475717 -0.972248 3.558955 48.484146 9.208096 6.875537 -4.919087 0.000000 0.000000 0.000000 0.652374 0.930877 -1.137771 1.558477 0.966762 0.575311 -0.483258 -2.380237 8.970855 -0.048939 -0.132497 -0.006979 -0.713663 -1.325931 10.503295 -3.244488 -0.757478 2.255352 0.000000 0.000000 0.000000 0.536654 -0.986345 7.334348 -5.355030 -2.400268 5.244034 -52.357208 -0.912148 14.168689 -96.137167 -87.366486 120.745396 0.000000 0.000000 0.000000 -3.206327 0.852040 6.512228 22.007940 3.756111 2.933005 60.122549 -5.514624 -9.631858 -167.631475 74.172699 -172.122816 0.000000 0.000000 0.000000 
-3.153788 80.763138 32.337692 -179.831764 5.688536 179.962658 -5.116849 -0.388452 9.901948 -4.223948 2.017591 -20.910901 8.552958 5.755609 28.548893 -0.749173 -5.063961 -12.805394 0.000000 0.000000 0.000000 -0.083092 -2.250736 9.322068 -4.049339 -3.244235 -38.829403 -0.581166 4.389434 43.237396 9.556074 7.197378 -3.225919 0.000000 0.000000 0.000000 0.430621 0.520500 -1.231202 1.731241 1.021793 0.588767 -0.510558 -2.376882 8.962739 -0.025349 -0.109386 0.014834 -0.745970 -1.209419 10.553049 -3.045994 -0.830933 2.210490 0.000000 0.000000 0.000000 0.552463 -0.930576 7.330299 -5.250796 -2.351061 5.492035 -52.169419 -0.969258 14.808007 -94.125068 -87.565143 119.903233 0.000000 0.000000 0.000000 -3.285070 0.897168 6.672998 22.020460 3.479493 2.766973 59.787815 -5.535259 -11.711766 -166.918321 73.804879 -171.712417 0.000000 0.000000 0.000000 
-2.834260 80.797173 31.735676 -179.829168 5.227354 179.920269 -5.231060 -0.731399 10.198821 -3.765221 2.115953 -20.690240 8.429866 5.699114 28.669104 -0.691408 -5.421080 -13.078565 0.000000 0.000000 0.000000 0.170047 -2.211068 9.473878 -4.222377 -2.762413 -37.636398 -0.086368 5.291365 39.195478 10.073328 7.508651 -0.893632 0.000000 0.000000 0.000000 0.343986 0.447681 -1.315518 1.947819 1.328699 0.565821 -0.523124 -2.468964 9.006403 0.008386 -0.166967 0.001852 -0.776276 -1.432858 10.609726 -2.833243 -0.952358 2.276073 0.000000 0.000000 0.000000 0.511527 -1.083180 7.461790 -5.183335 -2.326503 5.515555 -52.237898 -0.927125 15.279120 -93.934273 -87.662172 120.652027 0.000000 0.000000 0.000000 -3.368134 0.747334 6.699435 22.027811 3.134800 2.585465 59.627927 -5.597340 -13.333482 -166.584120 73.562544 -171.628584 0.000000 0.000000 0.000000 
-2.421232 80.770805 31.110956 -179.970581 5.130517 -179.770852 -5.331381 -0.976927 10.221679 -3.381231 2.254571 -20.672206 8.195214 5.689751 29.003053 -0.560991 -5.763668 -13.478709 0.000000 0.000000 0.000000 -0.157104 -1.915564 9.580281 -3.917954 -2.082069 -36.537646 0.045719 6.199005 37.105426 10.735071 7.877405 -0.484974 0.000000 0.000000 0.000000 0.283957 0.295247 -1.696467 2.069043 1.533121 0.389483 -0.577836 -2.467506 9.012104 -0.014691 -0.110347 0.025829 -0.782295 -1.481533 10.712590 -2.681411 -1.105171 2.306219 0.000000 0.000000 0.000000 0.511732 -1.054062 7.547012 -5.174296 -2.099064 5.610380 -52.649192 -0.778219 15.439728 -94.582431 -87.819765 122.010101 0.000000 0.000000 0.000000 -3.430475 0.757956 6.824980 22.002333 3.002835 2.482020 59.579160 -5.490751 -14.351419 -166.063468 73.584456 -171.353655 0.000000 0.000000 0.000000 
-1.926791 80.727066 30.475262 -179.952699 4.747942 -179.611736 -5.287655 -1.303254 10.138069 -2.889637 2.337911 -20.454531 8.009163 5.542307 29.670161 -0.456872 -6.158800 -13.990451 0.000000 0.000000 0.000000 -0.337293 -1.789779 9.674209 -3.948930 -0.550831 -35.294142 0.199037 7.254849 36.558994 11.300917 8.337706 -0.975489 0.000000 0.000000 0.000000 0.441707 0.146708 -2.021187 2.201350 1.680150 0.281255 -0.616433 -2.529218 9.069569 -0.019433 -0.133322 0.081149 -0.803012 -1.447730 10.744980 -2.602324 -1.196769 2.501321 0.000000 0.000000 0.000000 0.498178 -1.104888 7.523988 -5.364715 -1.808484 5.654965 -53.145237 -0.613764 15.227635 -95.374760 -87.969046 123.304708 0.000000 0.000000 0.000000 -3.503376 0.719973 6.807609 22.015952 2.983580 2.363754 59.661142 -5.255063 -14.768583 -165.103226 73.610226 -170.670663 0.000000 0.000000 0.000000 
-1.324072 80.664726 29.806219 -179.855055 4.555930 -179.554772 -5.164575 -1.464040 9.994641 -2.266187 2.437535 -20.147494 7.910218 5.337062 30.533787 -0.399551 -6.604633 -14.480455 0.000000 0.000000 0.000000 -0.659140 -1.845861 9.735070 -3.445257 0.587954 -34.049600 0.083668 7.745692 36.066066 11.517739 8.522962 -2.857578 0.000000 0.000000 0.000000 0.660252 0.005394 -2.302936 2.285713 1.806644 0.161155 -0.617116 -2.539613 9.060815 0.028259 -0.080997 0.104277 -0.929382 -1.445995 10.836588 -2.619723 -1.188808 2.745046 0.000000 0.000000 0.000000 0.380089 -1.110731 7.673425 -5.481706 -1.435723 5.690681 -53.820941 -0.380886 14.661146 -91.686492 -88.179197 119.948149 0.000000 0.000000 0.000000 -3.587637 0.624937 6.947542 22.076905 3.067951 2.269746 59.754839 -4.787678 -14.971344 -164.498167 73.981597 -170.386760 0.000000 0.000000 0.000000 
-0.606911 80.599304 29.076071 -179.797586 4.363009 -179.595316 -5.073220 -1.607976 10.064104 -1.608378 2.500905 -19.964319 7.726008 5.118895 31.422381 -0.367602 -7.029473 -14.851323 0.000000 0.000000 0.000000 -0.816193 -1.864961 9.649854 -2.786929 1.229708 -32.993502 0.049169 7.733867 36.035737 10.957417 8.057464 -4.155453 0.000000 0.000000 0.000000 0.847326 -0.034058 -2.609885 2.283851 1.847049 0.134470 -0.642398 -2.645982 9.179905 -0.020411 -0.150612 0.102135 -0.895805 -1.376419 10.882969 -2.758741 -1.232048 2.900083 0.000000 0.000000 0.000000 0.453673 -1.184780 7.487971 -5.653255 -1.008925 5.673448 -54.515940 0.107645 13.906523 -83.902201 -88.242192 112.321942 0.000000 0.000000 0.000000 -3.516076 0.692205 6.920533 22.043240 3.223081 2.177385 60.155238 -4.259756 -14.902144 -163.740835 74.288969 -169.991579 0.000000 0.000000 0.000000 
0.190849 80.551109 28.316465 -179.726989 4.231032 -179.650668 -4.980341 -1.569249 10.045555 -0.878094 2.597576 -19.680645 7.499031 4.923308 32.261190 -0.402834 -7.504708 -15.073312 0.000000 0.000000 0.000000 -0.869170 -1.762121 9.599915 -2.157277 1.811365 -31.965996 0.032397 7.671690 36.058816 10.173603 7.616739 -5.506449 0.000000 0.000000 0.000000 0.941294 -0.112930 -2.872364 2.229181 1.918620 0.085479 -0.579602 -2.595165 9.244442 0.017467 -0.033382 0.060502 -0.925836 -1.618815 11.047056 -2.872419 -1.293803 3.156621 0.000000 0.000000 0.000000 0.358527 -1.200680 7.657284 -5.614770 -0.789515 5.634162 -55.091186 0.268207 13.349987 -77.692049 -88.300727 106.122623 0.000000 0.000000 0.000000 -3.543112 0.643331 6.921913 22.156942 3.200048 2.108180 60.645134 -3.629554 -15.038989 -163.191224 74.567456 -169.845358 0.000000 0.000000 0.000000 
